<svg width="32" height="32" viewBox="0 0 32 32" fill="none" xmlns="http://www.w3.org/2000/svg">
  <rect x="2" y="2" width="28" height="28" rx="6" fill="#B8A4FF" stroke="#171717" stroke-width="2.5"/>
  <g transform="translate(7 7)" stroke="#171717" stroke-width="2" stroke-linecap="round" stroke-linejoin="round" fill="none">
    <path d="M9 5.25v10.5"/>
    <path d="M2.25 13.5a.75.75 0 0 1-.75-.75V3a.75.75 0 0 1 .75-.75h3.75a3 3 0 0 1 3 3 3 3 0 0 1 3-3h3.75a.75.75 0 0 1 .75.75v9.75a.75.75 0 0 1-.75.75h-4.5a2.25 2.25 0 0 0-2.25 2.25 2.25 2.25 0 0 0-2.25-2.25z"/>
  </g>
</svg>
